<svg height="512" viewBox="0 0 64 64" width="512" xmlns="http://www.w3.org/2000/svg"><g id="Icons"><g><g><path d="m50 34h6v4h-6z" fill="#059fc7"/></g><g><path d="m57 38h-1v-5c0-.552.448-1 1-1 .552 0 1 .448 1 1v4c0 .552-.448 1-1 1z" fill="#f0c8a0"/></g><g><path d="m29 50h4v4h-4z" fill="#d1d1d1"/></g><g><path d="m29 50h1v1h-1z" fill="#b4b4b4"/></g><g><path d="m48 36h-2v-17c0-.552.448-1 1-1 .552 0 1 .448 1 1z" fill="#fab414"/></g><g><path d="m46 22v18h-10v-16c0-3.314 2.686-6 6-6 2.2 0 4 1.8 4 4z" fill="#f0f0f0"/></g><g><g><path d="m31.945 23.954c2.734-2.734 2.734-7.166 0-9.899s-7.166-2.734-9.899 0c-2.493 2.493-2.705 6.394-.651 9.136l-.763.763c-.39.39-.391 1.024 0 1.414.391.391 1.024.39 1.414 0l.763-.763c2.742 2.054 6.643 1.842 9.136-.651z" fill="#059fc7"/></g><g><path d="m29.714 17.959c-.353-.353-.943-.392-1.356 0l-2.041 2.047-.681-.681c-.375-.375-.981-.375-1.356 0-.347.33-.398.958 0 1.356l1.356 1.356c.375.385.981.385 1.356 0 .2-.197 2.523-2.514 2.722-2.712.375-.376.375-.991 0-1.366z" fill="#0082aa"/></g><g><g><path d="m27.675 20.364-.683.673c-.375.385-.981.385-1.356 0l-1.356-1.356c-.398-.398-.347-1.027 0-1.356.375-.375.981-.375 1.356 0z" fill="#d1d1d1"/></g><g><path d="m29.714 18.324-2.722 2.712c-.375.385-.981.385-1.356 0l-.673-.673 3.395-3.405c.413-.392 1.004-.353 1.356 0 .375.376.375.991 0 1.366z" fill="#f0f0f0"/></g></g></g><g><path d="m40 18c-1.105 0-2-.895-2-2v-4c0-2.209 1.791-4 4-4 2.209 0 4 1.791 4 4 0 3.314-2.686 6-6 6z" fill="#f0c8a0"/></g><g><g><path d="m60 39v4c0 .55-.45 1-1 1h-51v-5c0-.552.448-1 1-1h50c.55 0 1 .45 1 1z" fill="#efefef"/></g></g><g><path d="m50 39v2c0 .55-.45 1-1 1h-22c-.55 0-1-.45-1-1v-2z" fill="#d1d1d1"/></g><g><path d="m17 38h-8c-.552 0-1-.448-1-1v-2c0-.552.448-1 1-1h6c1.657 0 3 1.343 3 3 0 .552-.448 1-1 1z" fill="#c80a50"/></g><g><path d="m19.657 32.243c-2.343 2.343-6.142 2.343-8.485 0-1.562-1.562-1.562-4.095 0-5.657 1.562-1.562 4.095-1.562 5.657 0l2.828 2.828c.781.781.781 2.048 0 2.829z" fill="#f0c8a0"/></g><g><path d="m40 32v6h-17c-1.66 0-3-1.34-3-3 0-1.654 1.348-3 3-3z" fill="#059fc7"/></g><g><path d="m52 32v5c0 .55-.45 1-1 1h-23v-6c0-.55.45-1 1-1h22c.55 0 1 .45 1 1z" fill="#c80a50"/></g><g><path d="m52 37c0 .55-.45 1-1 1h-23v-1z" fill="#9f0226"/></g><g><g><path d="m43.59 31c-.11.09-.25.15-.39.18l-9.02 1.8c-.54.11-1.07-.24-1.18-.78-.11-.55.24-1.07.78-1.18l.1-.02z" fill="#9f0226"/></g></g><g><path d="m26 36h12v2h-12z" fill="#059fc7"/></g><g><path d="m41 38h-3v-2h3c.552 0 1 .448 1 1 0 .552-.448 1-1 1z" fill="#f0c8a0"/></g><g><path d="m59 44h-51v-15c0-.552-.448-1-1-1h-2c-.552 0-1 .448-1 1v26c0 .552.448 1 1 1h2c.552 0 1-.448 1-1v-5h48v5c0 .552.448 1 1 1h2c.552 0 1-.448 1-1v-10c0-.552-.448-1-1-1z" fill="#fab414"/></g><g><path d="m36 50v5c0 .55-.45 1-1 1s-1-.45-1-1v-5z" fill="#fab414"/></g><g><path d="m48 50v5c0 .55-.45 1-1 1s-1-.45-1-1v-5z" fill="#fab414"/></g><g><path d="m46 50h2v1h-2z" fill="#dc960a"/></g><g><path d="m30 50h4v4h-4z" fill="#f0f0f0"/></g><g><path d="m30 50h4v1h-4z" fill="#d1d1d1"/></g><g><path d="m50 38v2c0 .55-.45 1-1 1h-22c-.55 0-1-.45-1-1v-2z" fill="#c80a50"/></g><g><path d="m34 50h2v1h-2z" fill="#dc960a"/></g><g><g><path d="m44 29v1.2c0 .32-.16.62-.41.8h-9.71l8.12-1.62v-.38z" fill="#d1d1d1"/></g></g><g><g><path d="m33 31.196c-.108-.542.243-1.068.784-1.177l8.216-1.643v-2.376h2v3.196c0 .477-.336.887-.804.981l-9.02 1.804c-.541.108-1.068-.243-1.176-.785z" fill="#f0c8a0"/></g></g><g><path d="m32 56h-5c-.552 0-1-.448-1-1 0-.552.448-1 1-1h6v1c0 .552-.448 1-1 1z" fill="#00143c"/></g><g><path d="m33 56h-5c-.552 0-1-.448-1-1 0-.552.448-1 1-1h6v1c0 .552-.448 1-1 1z" fill="#0a5078"/></g></g></g></svg>