<svg id="Layer_1" height="512" viewBox="0 0 512 512" width="512" xmlns="http://www.w3.org/2000/svg" data-name="Layer 1"><path d="m318.38 196.06v25.93h-32.34v-36.99l20.92 8.19a46.108 46.108 0 0 0 11.42 2.87z" fill="#6d7486"/><path d="m464.18 232.15a121.58 121.58 0 0 1 35.82 86.31c0 67.49-54.87 122.17-122.47 122.06l-98.18-.38v-25.59h97.74a96.28 96.28 0 1 0 0-192.56h-58.71v-25.93a44.7 44.7 0 0 0 5.55.34h53.79a121.986 121.986 0 0 1 86.46 35.75z" fill="#b0b5ca"/><path d="m267.04 25h-236.04a19.758 19.758 0 0 0 -20 19.72v239.73c0 11.04 8.95 19.55 20 19.55h236.04a19.594 19.594 0 0 0 19.96-19.55v-239.73a19.73 19.73 0 0 0 -19.96-19.72z" fill="#505866"/><path d="m143.98 372.61h40.91a20 20 0 0 0 -20 20v74.67a20 20 0 0 0 20 20h-40.91a20.9 20.9 0 0 1 -20.91-20.88v-72.92a20.886 20.886 0 0 1 20.91-20.87z" fill="#80aaff"/><path d="m267.39 155.02v.83a9.479 9.479 0 0 1 -9.47 9.48h-12.5a9.487 9.487 0 0 1 -9.48-9.48v-.83a9.479 9.479 0 0 1 9.48-9.47h12.5a9.47 9.47 0 0 1 9.47 9.47z" fill="#f3ce7d"/><path d="m267.39 102.83v.83a9.472 9.472 0 0 1 -9.47 9.48h-12.5a9.481 9.481 0 0 1 -9.48-9.48v-.83a9.479 9.479 0 0 1 9.48-9.47h12.5a9.47 9.47 0 0 1 9.47 9.47z" fill="#f3ce7d"/><path d="m197.98 248.31a14.4 14.4 0 1 1 -14.42 14.4 14.414 14.414 0 0 1 14.42-14.4z" fill="#5fcda4"/><path d="m96.81 247.99v31h-41.52a14.852 14.852 0 0 1 -14.85-14.85v-1.3a14.852 14.852 0 0 1 14.85-14.85z" fill="#e87187"/><path d="m153.17 262.84v1.3a14.852 14.852 0 0 1 -14.85 14.85h-41.51v-31h41.51a14.852 14.852 0 0 1 14.85 14.85z" fill="#5fa8ed"/><path d="m260.35 372.61h-76.46a20 20 0 0 0 -20 20v74.67a20 20 0 0 0 20 20h76.46a20 20 0 0 0 20-20v-74.67a20 20 0 0 0 -20-20z" fill="#6994fe"/><path d="m149 466.4v-72.92c0-11.53 9.43-20.48 20.98-20.48h-26c-11.55 0-20.98 8.95-20.98 20.48v72.92a20.718 20.718 0 0 0 20.98 20.6h26a20.718 20.718 0 0 1 -20.98-20.6z" fill="#6c94d3"/><path d="m41 284.45v-239.73a19.758 19.758 0 0 1 20-19.72h-30a19.758 19.758 0 0 0 -20 19.72v239.73c0 11.04 8.95 19.55 20 19.55h30c-11.05 0-20-8.51-20-19.55z" fill="#3e434c"/><path d="m219.07 70.81v131.18a19.994 19.994 0 0 1 -20 20h-139.84a20 20 0 0 1 -20-20v-131.18a20.007 20.007 0 0 1 20-20h139.84a20 20 0 0 1 20 20z" fill="#53d8d8"/><path d="m69 201.99v-131.18a20.044 20.044 0 0 1 20.23-19.81h-30a20.044 20.044 0 0 0 -20.23 19.81v131.18a20.207 20.207 0 0 0 20.23 20.01h30a20.207 20.207 0 0 1 -20.23-20.01z" fill="#419997"/><path d="m198.808 115.181h-22.46a6 6 0 0 1 0-12h22.46a6 6 0 0 1 0 12z" fill="#f4f8fc"/><path d="m198.808 169.979h-22.46a6 6 0 0 1 0-12h22.46a6 6 0 0 1 0 12z" fill="#f4f8fc"/><path d="m198.808 87.782h-22.46a6 6 0 0 1 0-12h22.46a6 6 0 0 1 0 12z" fill="#f4f8fc"/><path d="m198.808 142.58h-22.46a6 6 0 0 1 0-12h22.46a6 6 0 0 1 0 12z" fill="#f4f8fc"/><path d="m198.808 197.377h-22.46a6 6 0 0 1 0-12h22.46a6 6 0 0 1 0 12z" fill="#f4f8fc"/><g fill="#e87187"><path d="m75.468 98.22h-12a6 6 0 1 1 0-12h12a6 6 0 0 1 0 12z"/><path d="m114.841 98.22h-19.687a6 6 0 0 1 0-12h19.687a6 6 0 0 1 0 12z"/><path d="m146.527 98.22h-12a6 6 0 0 1 0-12h12a6 6 0 0 1 0 12z"/><path d="m75.468 140.492h-12a6 6 0 1 1 0-12h12a6 6 0 0 1 0 12z"/><path d="m114.841 140.492h-19.687a6 6 0 0 1 0-12h19.687a6 6 0 0 1 0 12z"/><path d="m146.527 140.492h-12a6 6 0 0 1 0-12h12a6 6 0 0 1 0 12z"/><path d="m75.468 182.765h-12a6 6 0 0 1 0-12h12a6 6 0 1 1 0 12z"/><path d="m114.841 182.765h-19.687a6 6 0 0 1 0-12h19.687a6 6 0 1 1 0 12z"/><path d="m146.527 182.765h-12a6 6 0 0 1 0-12h12a6 6 0 0 1 0 12z"/></g><path d="m142.383 468.488a6 6 0 0 1 -6-6v-62.588a6 6 0 0 1 12 0v62.589a6 6 0 0 1 -6 5.999z" fill="#536a8c"/><path d="m252.561 399.023h-14a6 6 0 0 1 0-12h14a6 6 0 0 1 0 12zm-28 0h-14a6 6 0 0 1 0-12h14a6 6 0 1 1 0 12zm-28 0h-14a6 6 0 0 1 0-12h14a6 6 0 1 1 0 12z" fill="#5476ba"/><path d="m252.561 472.087h-14a6 6 0 0 1 0-12h14a6 6 0 0 1 0 12zm-28 0h-14a6 6 0 0 1 0-12h14a6 6 0 1 1 0 12zm-28 0h-14a6 6 0 0 1 0-12h14a6 6 0 1 1 0 12z" fill="#5476ba"/><path d="m310 59a6 6 0 0 1 -6-6v-2a6 6 0 0 1 12 0v2a6 6 0 0 1 -6 6z" fill="#d4e1f4"/><path d="m310 171a6 6 0 0 1 -6-6v-92a6 6 0 0 1 12 0v92a6 6 0 0 1 -6 6z" fill="#d4e1f4"/></svg>