<svg id="Capa_1" enable-background="new 0 0 512 512" height="512" viewBox="0 0 512 512" width="512" xmlns="http://www.w3.org/2000/svg"><g><g><g><g><g><g><circle cx="256" cy="256" fill="#7584f2" r="256"/></g></g></g></g></g><path d="m270.673 511.586c133.579-7.548 239.772-117.509 241.31-252.612l-78.977-78.977-4.559 6.916-30.646-30.646-8.015 13.879-27.482-27.482-12.461 41.02-24.646-24.646-7.873 19.908-94.804-94.804-2.482 14.971-31.728-31.728-2.868 44.77-35.052-35.051-1.181 58.104-32.628-32.628 6.903 221.417-22.7 17.7 1.509 1.803z" fill="#4253ce"/><g><path d="m275.038 182.268c-6.962-6.962-18.708-7.392-25.21 0-6.663 7.574-24.661 31.936-24.661 31.936v-121.893c0-7.279-5.66-13.479-12.935-13.737-7.637-.272-13.914 5.839-13.914 13.415v73.195h-8.417v-91.334c0-7.279-5.66-13.479-12.935-13.737-7.637-.272-13.914 5.839-13.914 13.416v91.656h-8.417v-78.068c0-7.279-5.66-13.479-12.935-13.737-7.637-.271-13.913 5.839-13.913 13.415v78.389h-8.418v-54.245c0-7.279-5.66-13.479-12.935-13.737-7.637-.272-13.914 5.839-13.914 13.415v149.393c0 15.171 7.539 29.35 20.117 37.833v43.855h94.719v-43.855l11.508-8.767c4.171-3.177 7.762-7.049 10.618-11.447 0 0 34.323-52.514 45.556-70.152 6.362-9.989 6.961-18.248 0-25.209z" fill="#64e1dc"/></g><g><path d="m275.038 182.268c-6.962-6.962-18.708-7.392-25.21 0-6.663 7.574-24.661 31.936-24.661 31.936v-121.893c0-7.279-5.66-13.479-12.935-13.737-7.637-.272-13.914 5.839-13.914 13.416v73.195h-8.417v-91.335c0-7.279-5.66-13.479-12.935-13.737-7.637-.272-13.914 5.839-13.914 13.416v91.656h-3.92v176.513h48.224v-43.855l11.508-8.767c4.171-3.177 7.762-7.049 10.618-11.447 0 0 34.323-52.514 45.556-70.152 6.362-9.989 6.961-18.248 0-25.209z" fill="#00c8c8"/></g><g><path d="m208.688 347.576h-96.591c-7.639 0-13.832-6.193-13.832-13.832v-2.337c0-7.639 6.193-13.831 13.832-13.831h96.591c7.639 0 13.831 6.193 13.831 13.831v2.337c0 7.639-6.192 13.832-13.831 13.832z" fill="#fff"/></g><g><path d="m208.688 317.576h-49.555v30h49.555c7.639 0 13.832-6.193 13.832-13.832v-2.337c0-7.639-6.193-13.831-13.832-13.831z" fill="#e9edf5"/></g><g><path d="m252.806 259.185c6.962-6.962 18.708-7.392 25.21 0 6.663 7.574 24.661 31.936 24.661 31.936v-121.893c0-7.279 5.66-13.479 12.935-13.737 7.637-.272 13.914 5.839 13.914 13.416v73.195h8.417v-91.335c0-7.279 5.66-13.479 12.935-13.737 7.637-.272 13.914 5.839 13.914 13.415v91.656h8.417v-78.067c0-7.279 5.66-13.479 12.935-13.737 7.637-.272 13.914 5.839 13.914 13.415v78.389h8.418v-54.245c0-7.279 5.66-13.479 12.934-13.737 7.637-.272 13.914 5.839 13.914 13.415v149.392c0 15.171-7.539 29.35-20.117 37.833v43.855h-94.719v-43.854l-11.508-8.767c-4.171-3.177-7.763-7.049-10.618-11.447 0 0-34.322-52.514-45.556-70.152-6.362-9.989-6.962-18.248 0-25.209z" fill="#64e1dc"/></g><g><path d="m421.409 174.119c-7.274.259-12.935 6.458-12.935 13.737v54.245h-8.418v-78.389c0-7.577-6.276-13.687-13.914-13.415-7.274.259-12.935 6.458-12.935 13.737v78.067h-6.848v176.513h48.845v-43.854c12.577-8.483 20.116-22.662 20.116-37.833v-149.392c.003-7.577-6.273-13.687-13.911-13.416z" fill="#00c8c8"/></g><g><path d="m414.588 428.411h-96.591c-7.639 0-13.832-6.193-13.832-13.831v-2.337c0-7.639 6.193-13.832 13.832-13.832h96.591c7.639 0 13.832 6.193 13.832 13.832v2.337c-.001 7.638-6.193 13.831-13.832 13.831z" fill="#fff"/></g><g><path d="m414.588 398.411h-48.227v30h48.227c7.639 0 13.832-6.193 13.832-13.832v-2.337c-.001-7.639-6.193-13.831-13.832-13.831z" fill="#e9edf5"/></g></g></svg>